<svg width="41" height="41" fill="none" xmlns="http://www.w3.org/2000/svg"><g clip-path="url(#a)" fill="#3D3D3F" stroke="#3D3D3F" stroke-width=".2"><path d="M15.066.705H4.276A3.7 3.7 0 0 0 .58 4.4v10.79a3.7 3.7 0 0 0 3.696 3.696h10.79a3.7 3.7 0 0 0 3.696-3.697V4.401A3.7 3.7 0 0 0 15.065.705Zm1.698 14.485a1.7 1.7 0 0 1-1.698 1.699H4.276a1.7 1.7 0 0 1-1.698-1.699V4.401a1.7 1.7 0 0 1 1.698-1.698h10.79a1.7 1.7 0 0 1 1.698 1.698v10.79ZM36.225.705H25.436A3.7 3.7 0 0 0 21.74 4.4v10.79a3.7 3.7 0 0 0 3.696 3.696h10.79a3.7 3.7 0 0 0 3.696-3.697V4.401A3.7 3.7 0 0 0 36.225.705Zm1.699 14.485a1.7 1.7 0 0 1-1.699 1.699H25.436a1.7 1.7 0 0 1-1.698-1.699V4.401a1.7 1.7 0 0 1 1.698-1.698h10.79a1.7 1.7 0 0 1 1.698 1.698v10.79ZM15.066 22.283H4.276A3.7 3.7 0 0 0 .58 25.98v10.789a3.7 3.7 0 0 0 3.696 3.696h10.79a3.7 3.7 0 0 0 3.696-3.697V25.98a3.7 3.7 0 0 0-3.697-3.697Zm1.698 14.486a1.7 1.7 0 0 1-1.698 1.698H4.276a1.7 1.7 0 0 1-1.698-1.698v-10.79a1.7 1.7 0 0 1 1.698-1.698h10.79a1.7 1.7 0 0 1 1.698 1.699v10.789ZM36.225 22.283H25.436a3.7 3.7 0 0 0-3.696 3.697v10.789a3.7 3.7 0 0 0 3.696 3.696h10.79a3.7 3.7 0 0 0 3.696-3.697V25.98a3.7 3.7 0 0 0-3.697-3.697Zm1.699 14.486a1.7 1.7 0 0 1-1.699 1.698H25.436a1.7 1.7 0 0 1-1.698-1.698v-10.79a1.7 1.7 0 0 1 1.698-1.698h10.79a1.7 1.7 0 0 1 1.698 1.699v10.789Z"/></g><defs><clipPath id="a"><rect x=".68" y=".805" width="39.56" height="39.56" rx="3" fill="#fff"/></clipPath></defs></svg>