<svg width="50" height="51" fill="none" xmlns="http://www.w3.org/2000/svg"><g clip-path="url(#a)" fill="#3D3D3F"><path d="M43.67 6.627h-.594a4.27 4.27 0 0 0-1.102-5.66 4.272 4.272 0 0 0-6.099 1.056l-3.08 4.604H6.33a3.95 3.95 0 0 0-3.945 3.945v25.222a3.95 3.95 0 0 0 3.945 3.945h15.324l-1.158 4.863h-2.499a2.957 2.957 0 0 0-2.954 2.953v.617h-3.08a.977.977 0 0 0 0 1.953h26.074a.977.977 0 0 0 0-1.953h-3.08v-.617a2.957 2.957 0 0 0-2.955-2.953h-2.498l-1.158-4.863h15.323a3.95 3.95 0 0 0 3.945-3.945V10.572a3.95 3.95 0 0 0-3.945-3.945ZM29.676 23.795c-1.527 1.068-4.387-.384-7.119 1.073-.666-3.462-.246-6.718 3.223-7.437a6.22 6.22 0 0 1 1.342-.128l3.533 2.621c.512 1.492.32 2.961-.979 3.87Zm.984-10.468 2.764 2.051L31.3 17.97l-2.503-1.857 1.864-2.786ZM37.498 3.11a2.32 2.32 0 0 1 3.313-.574 2.32 2.32 0 0 1 .411 3.337l-6.557 7.993-2.917-2.164 5.75-8.592Zm-4.495 44.445v.617H16.997v-.617c0-.551.448-1 1-1h14.005c.552 0 1 .449 1 1Zm-5.507-2.953h-4.992l1.157-4.863h2.677l1.158 4.863Zm18.165-8.808a1.994 1.994 0 0 1-1.992 1.992H6.33a1.994 1.994 0 0 1-1.991-1.992V31.22h2.79a.977.977 0 0 0 0-1.954H4.34V10.572c0-1.098.893-1.992 1.991-1.992h25.158l-4.53 6.769c-1.914.017-3.824.684-5.075 2.144-1.702 1.987-2.001 5.109-.889 9.279a.977.977 0 0 0 1.619.454c2.524-2.413 5.67.22 8.486-2.06 1.719-1.392 2.126-3.604 1.477-5.673L41.527 8.58h2.142c1.098 0 1.992.894 1.992 1.992v18.695H14.94a.977.977 0 0 0 0 1.954h30.72v4.573Z"/><path d="M10.846 29.286a.975.975 0 1 0 .38 1.914.975.975 0 0 0-.38-1.914Z"/></g><defs><clipPath id="a"><path fill="#fff" transform="translate(0 .125)" d="M0 0h50v50H0z"/></clipPath></defs></svg>