<svg width="50" height="51" fill="none" xmlns="http://www.w3.org/2000/svg"><g clip-path="url(#a)" fill="#fff"><path d="M45.605.223H4.395A4.4 4.4 0 0 0 0 4.617v41.016a4.4 4.4 0 0 0 4.395 4.394h41.21A4.4 4.4 0 0 0 50 45.633V4.617A4.4 4.4 0 0 0 45.605.223Zm-41.21 2.93h41.21c.808 0 1.465.656 1.465 1.464v7.324H2.93V4.617c0-.808.657-1.465 1.465-1.465Zm41.21 43.944H4.395a1.466 1.466 0 0 1-1.465-1.464V14.87h44.14v30.762c0 .807-.657 1.464-1.465 1.464Z"/><path d="M29.972 19.384a1.465 1.465 0 0 0-1.924.77L19.26 40.66a1.465 1.465 0 0 0 2.693 1.154l8.789-20.508a1.465 1.465 0 0 0-.77-1.923ZM17.355 24.21a1.465 1.465 0 0 0-2.06-.229l-7.323 5.86a1.465 1.465 0 0 0 0 2.287l7.324 5.86a1.465 1.465 0 0 0 1.83-2.288l-5.895-4.716 5.895-4.715a1.465 1.465 0 0 0 .229-2.06ZM42.029 29.84l-7.325-5.859a1.465 1.465 0 1 0-1.83 2.288l5.895 4.715-5.895 4.716a1.465 1.465 0 1 0 1.83 2.287l7.325-5.859a1.465 1.465 0 0 0 0-2.288ZM7.422 9.012a1.465 1.465 0 1 0 0-2.93 1.465 1.465 0 0 0 0 2.93ZM13.281 9.012a1.465 1.465 0 1 0 0-2.93 1.465 1.465 0 0 0 0 2.93ZM19.14 9.012a1.465 1.465 0 1 0 0-2.93 1.465 1.465 0 0 0 0 2.93ZM33.79 9.012h8.788a1.465 1.465 0 0 0 0-2.93H33.79a1.465 1.465 0 0 0 0 2.93Z"/></g><defs><clipPath id="a"><path fill="#fff" transform="translate(0 .125)" d="M0 0h50v50H0z"/></clipPath></defs></svg>