<svg width="32" height="33" fill="none" xmlns="http://www.w3.org/2000/svg"><path fill-rule="evenodd" clip-rule="evenodd" d="M16 .608c-8.837 0-16 7.164-16 16 0 8.837 7.163 16 16 16s16-7.163 16-16c0-8.836-7.163-16-16-16Zm6.668 10.5a2.167 2.167 0 0 1 1.509 1.55c.357 1.367.357 4.218.357 4.218s0 2.851-.357 4.218a2.167 2.167 0 0 1-1.51 1.55c-1.33.365-6.667.365-6.667.365s-5.337 0-6.668-.366a2.167 2.167 0 0 1-1.509-1.55c-.356-1.366-.356-4.217-.356-4.217s0-2.852.356-4.218a2.167 2.167 0 0 1 1.51-1.55c1.33-.366 6.667-.366 6.667-.366s5.337 0 6.668.367Z" fill="#646464"/><path fill-rule="evenodd" clip-rule="evenodd" d="M14.4 19.808v-5.334l4.267 2.667-4.267 2.667Z" fill="#646464"/></svg>