<svg width="32" height="33" fill="none" xmlns="http://www.w3.org/2000/svg"><path fill-rule="evenodd" clip-rule="evenodd" d="M16 .608c-8.837 0-16 7.164-16 16 0 8.837 7.163 16 16 16s16-7.163 16-16c0-8.836-7.163-16-16-16Zm-3.518 7.519c.91-.042 1.201-.052 3.519-.052h-.003c2.319 0 2.608.01 3.519.052.908.041 1.528.185 2.072.396a4.17 4.17 0 0 1 1.512.984c.474.475.766.95.984 1.512.21.543.354 1.162.397 2.071.04.91.052 1.201.052 3.519 0 2.317-.011 2.607-.052 3.517-.043.909-.187 1.529-.397 2.072a4.188 4.188 0 0 1-.985 1.511c-.474.475-.949.767-1.51.985-.543.211-1.164.355-2.072.396-.91.042-1.2.052-3.518.052-2.318 0-2.608-.01-3.518-.052-.909-.041-1.529-.185-2.072-.396a4.177 4.177 0 0 1-1.511-.985 4.182 4.182 0 0 1-.984-1.511c-.211-.543-.355-1.163-.397-2.072-.04-.91-.051-1.2-.051-3.517 0-2.318.01-2.609.051-3.52.041-.907.185-1.527.397-2.07.218-.561.51-1.037.985-1.512.474-.474.95-.766 1.511-.984.543-.21 1.163-.355 2.071-.396Z" fill="#646464"/><path fill-rule="evenodd" clip-rule="evenodd" d="M15.236 9.612H16c2.278 0 2.548.009 3.448.05.832.038 1.284.177 1.585.293.398.155.682.34.98.639.299.298.484.583.639.981.117.3.256.752.294 1.584.04.9.05 1.17.05 3.447s-.01 2.548-.05 3.447c-.038.832-.177 1.284-.294 1.584-.155.398-.34.682-.639.98a2.638 2.638 0 0 1-.98.639c-.3.117-.753.256-1.585.294-.9.04-1.17.05-3.448.05-2.279 0-2.549-.01-3.448-.05-.832-.038-1.284-.178-1.585-.294a2.642 2.642 0 0 1-.981-.639 2.644 2.644 0 0 1-.639-.98c-.116-.3-.256-.752-.294-1.584-.04-.9-.049-1.17-.049-3.449s.009-2.548.05-3.447c.037-.832.177-1.284.293-1.585.155-.398.34-.682.639-.98.299-.3.583-.484.981-.64.301-.117.753-.255 1.585-.294.787-.035 1.092-.046 2.682-.048v.002Zm5.32 1.417a1.024 1.024 0 1 0 0 2.049 1.024 1.024 0 0 0 0-2.049Zm-8.937 5.578a4.382 4.382 0 1 1 8.765 0 4.382 4.382 0 0 1-8.765 0Z" fill="#646464"/><path fill-rule="evenodd" clip-rule="evenodd" d="M16 13.763a2.845 2.845 0 1 1 0 5.69 2.845 2.845 0 0 1 0-5.69Z" fill="#646464"/></svg>