<svg width="196" height="47" fill="none" xmlns="http://www.w3.org/2000/svg"><path d="M51.652 32a.602.602 0 0 1-.442-.182.602.602 0 0 1-.182-.442V14.45c0-.19.06-.347.182-.468a.602.602 0 0 1 .442-.182h6.344c1.75 0 3.19.269 4.316.806 1.144.537 2.002 1.335 2.574 2.392.59 1.057.893 2.349.91 3.874.035.763.052 1.439.052 2.028 0 .59-.017 1.257-.052 2.002-.035 1.612-.33 2.947-.884 4.004-.555 1.04-1.395 1.82-2.522 2.34-1.11.503-2.53.754-4.264.754h-6.474Zm2.99-2.99h3.354c.97 0 1.76-.139 2.366-.416a2.604 2.604 0 0 0 1.326-1.326c.295-.624.45-1.439.468-2.444.017-.52.026-.97.026-1.352.017-.399.017-.789 0-1.17 0-.399-.009-.85-.026-1.352-.035-1.421-.39-2.47-1.066-3.146-.676-.676-1.75-1.014-3.224-1.014h-3.224v12.22ZM69.933 32a.602.602 0 0 1-.442-.182.602.602 0 0 1-.182-.442V14.45c0-.19.06-.347.182-.468a.602.602 0 0 1 .442-.182h11.44c.19 0 .347.06.468.182a.634.634 0 0 1 .182.468v1.716c0 .173-.06.32-.182.442a.634.634 0 0 1-.468.182H72.82v4.602h7.982c.19 0 .347.06.468.182.122.104.182.251.182.442v1.612c0 .19-.06.347-.182.468a.694.694 0 0 1-.468.156H72.82v4.758h8.762c.19 0 .347.06.468.182a.634.634 0 0 1 .182.468v1.716c0 .173-.06.32-.182.442a.634.634 0 0 1-.468.182H69.933Zm21.868.26c-1.612 0-2.964-.234-4.056-.702-1.075-.485-1.898-1.11-2.47-1.872-.555-.78-.85-1.595-.884-2.444a.53.53 0 0 1 .156-.39.53.53 0 0 1 .39-.156h2.314c.225 0 .39.052.494.156.121.087.225.2.312.338.104.33.303.659.598.988.295.312.693.572 1.196.78.52.208 1.17.312 1.95.312 1.248 0 2.175-.208 2.782-.624.624-.416.936-.98.936-1.69 0-.503-.165-.901-.494-1.196-.33-.312-.84-.59-1.534-.832-.676-.26-1.577-.529-2.704-.806-1.3-.312-2.392-.685-3.276-1.118-.867-.45-1.525-1.014-1.976-1.69-.433-.676-.65-1.534-.65-2.574 0-1.005.269-1.898.806-2.678.555-.78 1.335-1.395 2.34-1.846 1.023-.45 2.236-.676 3.64-.676 1.127 0 2.123.156 2.99.468.867.295 1.586.693 2.158 1.196.572.485 1.005 1.014 1.3 1.586.312.555.477 1.1.494 1.638a.59.59 0 0 1-.156.39c-.087.104-.217.156-.39.156H95.65a.923.923 0 0 1-.416-.104c-.139-.07-.251-.2-.338-.39-.104-.537-.442-.997-1.014-1.378-.572-.381-1.309-.572-2.21-.572-.936 0-1.69.173-2.262.52-.572.347-.858.884-.858 1.612 0 .485.139.893.416 1.222.295.312.754.59 1.378.832.641.243 1.482.503 2.522.78 1.473.33 2.678.71 3.614 1.144.936.433 1.62.988 2.054 1.664.433.659.65 1.5.65 2.522 0 1.144-.312 2.123-.936 2.938-.607.797-1.465 1.413-2.574 1.846-1.11.433-2.4.65-3.874.65ZM102.79 32a.6.6 0 0 1-.442-.182.6.6 0 0 1-.182-.442V14.424a.6.6 0 0 1 .182-.442.6.6 0 0 1 .442-.182h2.444c.19 0 .338.06.442.182a.603.603 0 0 1 .182.442v16.952c0 .173-.061.32-.182.442-.104.121-.252.182-.442.182h-2.444Zm14.217.26c-1.594 0-2.955-.277-4.082-.832a6.198 6.198 0 0 1-2.6-2.392c-.606-1.057-.936-2.314-.988-3.77a109.874 109.874 0 0 1 0-4.836c.052-1.439.382-2.67.988-3.692.624-1.023 1.5-1.811 2.626-2.366 1.144-.555 2.496-.832 4.056-.832 1.266 0 2.375.173 3.328.52.954.33 1.742.763 2.366 1.3.642.52 1.118 1.083 1.43 1.69.33.607.503 1.17.52 1.69a.45.45 0 0 1-.13.39.561.561 0 0 1-.416.156h-2.678c-.173 0-.303-.035-.39-.104a.934.934 0 0 1-.234-.312 3.653 3.653 0 0 0-.65-1.066c-.294-.364-.693-.667-1.196-.91-.502-.243-1.152-.364-1.95-.364-1.178 0-2.123.312-2.834.936-.693.624-1.066 1.655-1.118 3.094a67.132 67.132 0 0 0 0 4.576c.052 1.473.434 2.53 1.144 3.172.728.641 1.682.962 2.86.962.78 0 1.474-.139 2.08-.416a3.117 3.117 0 0 0 1.456-1.3c.364-.59.546-1.343.546-2.262v-.806h-3.172a.603.603 0 0 1-.442-.182.635.635 0 0 1-.182-.468v-1.378c0-.19.061-.347.182-.468a.603.603 0 0 1 .442-.182h6.214c.191 0 .338.06.442.182a.63.63 0 0 1 .182.468v2.73c0 1.456-.32 2.713-.962 3.77-.624 1.057-1.525 1.872-2.704 2.444-1.161.572-2.539.858-4.134.858Zm11.757-.26a.603.603 0 0 1-.442-.182.603.603 0 0 1-.182-.442V14.45c0-.19.061-.347.182-.468a.603.603 0 0 1 .442-.182h2.002c.243 0 .416.06.52.182.122.104.2.182.234.234l7.488 11.648V14.45c0-.19.052-.347.156-.468a.636.636 0 0 1 .468-.182h2.184c.191 0 .347.06.468.182a.63.63 0 0 1 .182.468v16.9a.63.63 0 0 1-.182.468.6.6 0 0 1-.442.182h-2.028c-.242 0-.416-.06-.52-.182a1.423 1.423 0 0 0-.234-.234l-7.462-11.388v11.18a.6.6 0 0 1-.182.442.633.633 0 0 1-.468.182h-2.184Zm17.369 0a.602.602 0 0 1-.442-.182.635.635 0 0 1-.182-.468v-1.82c0-.26.052-.468.156-.624.104-.156.182-.269.234-.338l9.048-11.7h-8.554a.633.633 0 0 1-.468-.182.656.656 0 0 1-.156-.442V14.45c0-.19.052-.347.156-.468a.633.633 0 0 1 .468-.182h12.428c.191 0 .347.06.468.182a.635.635 0 0 1 .182.468v1.794c0 .208-.035.381-.104.52a2.832 2.832 0 0 1-.234.39l-8.866 11.752h8.84c.191 0 .347.06.468.182a.635.635 0 0 1 .182.468v1.82c0 .173-.061.32-.182.442a.633.633 0 0 1-.468.182h-12.974Zm23.508.26c-1.612 0-2.982-.277-4.108-.832-1.11-.572-1.959-1.378-2.548-2.418-.59-1.057-.919-2.323-.988-3.796a90.887 90.887 0 0 1-.026-2.288c0-.815.008-1.595.026-2.34.069-1.456.398-2.713.988-3.77a5.977 5.977 0 0 1 2.574-2.418c1.126-.572 2.487-.858 4.082-.858 1.178 0 2.236.156 3.172.468.936.312 1.733.745 2.392 1.3a5.76 5.76 0 0 1 1.534 1.898c.364.728.554 1.517.572 2.366a.427.427 0 0 1-.156.39.53.53 0 0 1-.39.156h-2.47a.785.785 0 0 1-.468-.13c-.122-.104-.208-.269-.26-.494-.278-1.144-.754-1.924-1.43-2.34-.676-.416-1.517-.624-2.522-.624-1.162 0-2.089.33-2.782.988-.694.641-1.066 1.707-1.118 3.198a61.163 61.163 0 0 0 0 4.368c.052 1.49.424 2.565 1.118 3.224.693.641 1.62.962 2.782.962 1.005 0 1.846-.208 2.522-.624.676-.433 1.152-1.213 1.43-2.34.052-.243.138-.407.26-.494a.785.785 0 0 1 .468-.13h2.47a.53.53 0 0 1 .39.156.427.427 0 0 1 .156.39 5.482 5.482 0 0 1-.572 2.366 6.035 6.035 0 0 1-1.534 1.924c-.659.537-1.456.962-2.392 1.274-.936.312-1.994.468-3.172.468Zm15.679-.26a.6.6 0 0 1-.442-.182.6.6 0 0 1-.182-.442V25.5l-6.136-10.868a.884.884 0 0 1-.052-.13.53.53 0 0 1 .13-.546.498.498 0 0 1 .364-.156h2.314c.208 0 .372.052.494.156a.86.86 0 0 1 .286.338l4.42 7.566 4.394-7.566c.069-.121.164-.234.286-.338a.841.841 0 0 1 .52-.156h2.288a.53.53 0 0 1 .39.156.53.53 0 0 1 .13.546.18.18 0 0 1-.052.13L188.335 25.5v5.876c0 .173-.061.32-.182.442a.636.636 0 0 1-.468.182h-2.366Z" fill="#3D3D3F"/><g opacity=".95"><path d="M20.797 31.415a7.75 7.75 0 0 1-3.642-.894 8.094 8.094 0 0 1-2.854-2.52L9.1 31.11c.198.237.432.439.693.597l9.258 5.55a3.72 3.72 0 0 0 1.747.438c.608 0 1.206-.15 1.748-.438l9.257-5.55c.261-.158.496-.36.694-.597l-5.19-3.164a8.101 8.101 0 0 1-2.85 2.553 7.753 7.753 0 0 1-3.659.916Z" fill="url(#a)"/><path d="M12.653 23.039c.005-1.974.772-3.876 2.154-5.344 1.383-1.468 3.284-2.399 5.341-2.614V9.099c-.312.062-.612.17-.89.318l-9.65 5.306c-.525.334-.961.78-1.275 1.303a3.768 3.768 0 0 0-.533 1.707v10.611c.004.306.056.61.153.902l5.423-2.984a7.646 7.646 0 0 1-.723-3.223Z" fill="url(#b)"/><path d="m32.082 14.719-9.143-5.302a2.925 2.925 0 0 0-.843-.318v5.964a7.952 7.952 0 0 1 3.48 1.265 8.01 8.01 0 0 1 2.538 2.706 8.067 8.067 0 0 1 .398 7.23l5.138 2.982c.092-.292.14-.595.145-.901V17.74a3.915 3.915 0 0 0-.503-1.714 3.887 3.887 0 0 0-1.21-1.308Z" fill="url(#c)"/><path d="M38.742 9.405 23.65.676a6.354 6.354 0 0 0-5.704 0L2.852 9.405A6.308 6.308 0 0 0 0 14.336v17.458a6.33 6.33 0 0 0 2.852 4.945l15.093 8.729a6.354 6.354 0 0 0 5.704 0l15.093-8.73a6.323 6.323 0 0 0 2.852-4.944V14.336a6.317 6.317 0 0 0-2.852-4.931Zm-1.938 20.38a4.88 4.88 0 0 1-2.197 3.798l-11.627 6.72a4.854 4.854 0 0 1-4.38 0l-11.613-6.72a4.874 4.874 0 0 1-2.197-3.797V16.358a4.88 4.88 0 0 1 2.197-3.798l11.6-6.72a4.854 4.854 0 0 1 4.38 0l11.627 6.72a4.875 4.875 0 0 1 2.21 3.798v13.428Z" fill="url(#d)"/><path d="M14.947 23.072c0 1.092.343 2.16.985 3.069a5.79 5.79 0 0 0 2.626 2.035 6.17 6.17 0 0 0 3.38.314 5.962 5.962 0 0 0 2.994-1.512 5.436 5.436 0 0 0 1.6-2.828 5.24 5.24 0 0 0-.332-3.192 5.605 5.605 0 0 0-2.154-2.48 6.097 6.097 0 0 0-3.25-.93c-1.551 0-3.04.582-4.136 1.618-1.097 1.036-1.713 2.44-1.713 3.906Z" fill="url(#e)"/></g><defs><linearGradient id="a" x1="23.344" y1="39.382" x2="23.624" y2="25.602" gradientUnits="userSpaceOnUse"><stop stop-color="#F35F2F"/><stop offset="1" stop-color="#F35F2F" stop-opacity=".75"/></linearGradient><linearGradient id="b" x1="15.318" y1="32.733" x2="17.566" y2="4.422" gradientUnits="userSpaceOnUse"><stop stop-color="#F35F2F"/><stop offset="1" stop-color="#F35F2F" stop-opacity=".75"/></linearGradient><linearGradient id="c" x1="29.219" y1="32.733" x2="31.59" y2="4.443" gradientUnits="userSpaceOnUse"><stop stop-color="#F35F2F"/><stop offset="1" stop-color="#F35F2F" stop-opacity=".75"/></linearGradient><linearGradient id="d" x1="25.326" y1="54.13" x2="28.838" y2="-10.93" gradientUnits="userSpaceOnUse"><stop stop-color="#F35F2F"/><stop offset="1" stop-color="#F35F2F" stop-opacity=".75"/></linearGradient><linearGradient id="e" x1="22.07" y1="30.508" x2="22.786" y2="14.918" gradientUnits="userSpaceOnUse"><stop stop-color="#F35F2F"/><stop offset="1" stop-color="#F35F2F" stop-opacity=".75"/></linearGradient></defs></svg>