<svg width="32" height="31" fill="none" xmlns="http://www.w3.org/2000/svg"><circle cx="16.001" cy="15.467" r="15.467" fill="#1DA1F2"/><path fill-rule="evenodd" clip-rule="evenodd" d="M24.275 10.142a6.779 6.779 0 0 1-1.95.535 3.404 3.404 0 0 0 1.492-1.879 6.799 6.799 0 0 1-2.155.824 3.396 3.396 0 0 0-5.785 3.097 9.638 9.638 0 0 1-7-3.547 3.377 3.377 0 0 0-.459 1.707c0 1.177.599 2.216 1.51 2.825a3.384 3.384 0 0 1-1.538-.424v.042a3.4 3.4 0 0 0 2.723 3.33 3.413 3.413 0 0 1-1.533.058 3.4 3.4 0 0 0 3.172 2.359 6.814 6.814 0 0 1-5.027 1.405A9.612 9.612 0 0 0 12.929 22c6.245 0 9.66-5.174 9.66-9.66 0-.147-.002-.294-.01-.44a6.915 6.915 0 0 0 1.696-1.758Z" fill="#fff"/></svg>